<svg xmlns="http://www.w3.org/2000/svg" viewBox="0 0 64 64">
  <!-- 체크무늬 깃발 모양 파비콘 -->
  <rect width="64" height="64" fill="#f5f5f5"/>
  <rect x="0" y="0" width="16" height="16" fill="#000"/>
  <rect x="16" y="0" width="16" height="16" fill="#fff"/>
  <rect x="32" y="0" width="16" height="16" fill="#000"/>
  <rect x="48" y="0" width="16" height="16" fill="#fff"/>
  
  <rect x="0" y="16" width="16" height="16" fill="#fff"/>
  <rect x="16" y="16" width="16" height="16" fill="#000"/>
  <rect x="32" y="16" width="16" height="16" fill="#fff"/>
  <rect x="48" y="16" width="16" height="16" fill="#000"/>
  
  <rect x="0" y="32" width="16" height="16" fill="#000"/>
  <rect x="16" y="32" width="16" height="16" fill="#fff"/>
  <rect x="32" y="32" width="16" height="16" fill="#000"/>
  <rect x="48" y="32" width="16" height="16" fill="#fff"/>
  
  <rect x="0" y="48" width="16" height="16" fill="#fff"/>
  <rect x="16" y="48" width="16" height="16" fill="#000"/>
  <rect x="32" y="48" width="16" height="16" fill="#fff"/>
  <rect x="48" y="48" width="16" height="16" fill="#000"/>
</svg>